<svg preserveAspectRatio="none" width="100%" height="100%" overflow="visible" style="display: block;" viewBox="0 0 23.9962 23.9962" fill="none" xmlns="http://www.w3.org/2000/svg">
<g id="Icon">
<path id="Vector" d="M15.9975 2.99953C15.4671 2.99953 14.9585 3.21021 14.5835 3.58522C14.2085 3.96023 13.9978 4.46886 13.9978 4.99921V10.9983C13.9978 11.5286 14.2085 12.0372 14.5835 12.4123C14.9585 12.7873 15.4671 12.9979 15.9975 12.9979C16.2627 12.9979 16.517 13.1033 16.7045 13.2908C16.892 13.4783 16.9973 13.7326 16.9973 13.9978V14.9976C16.9973 15.528 16.7866 16.0366 16.4116 16.4116C16.0366 16.7866 15.528 16.9973 14.9976 16.9973C14.7325 16.9973 14.4781 17.1027 14.2906 17.2902C14.1031 17.4777 13.9978 17.732 13.9978 17.9972V19.9968C13.9978 20.262 14.1031 20.5163 14.2906 20.7038C14.4781 20.8913 14.7325 20.9967 14.9976 20.9967C16.5887 20.9967 18.1146 20.3646 19.2396 19.2396C20.3646 18.1146 20.9967 16.5887 20.9967 14.9976V4.99921C20.9967 4.46886 20.786 3.96023 20.411 3.58522C20.036 3.21021 19.5274 2.99953 18.997 2.99953H15.9975Z" stroke="var(--stroke-0, white)" stroke-width="1.99968" stroke-linecap="round" stroke-linejoin="round"/>
<path id="Vector_2" d="M4.99921 2.99953C4.46886 2.99953 3.96023 3.21021 3.58522 3.58522C3.21021 3.96023 2.99953 4.46886 2.99953 4.99921V10.9983C2.99953 11.5286 3.21021 12.0372 3.58522 12.4123C3.96023 12.7873 4.46886 12.9979 4.99921 12.9979C5.26439 12.9979 5.5187 13.1033 5.70621 13.2908C5.89371 13.4783 5.99905 13.7326 5.99905 13.9978V14.9976C5.99905 15.528 5.78837 16.0366 5.41336 16.4116C5.03835 16.7866 4.52972 16.9973 3.99937 16.9973C3.73419 16.9973 3.47988 17.1027 3.29237 17.2902C3.10487 17.4777 2.99953 17.732 2.99953 17.9972V19.9968C2.99953 20.262 3.10487 20.5163 3.29237 20.7038C3.47988 20.8913 3.73419 20.9967 3.99937 20.9967C5.59042 20.9967 7.1163 20.3646 8.24134 19.2396C9.36638 18.1146 9.99842 16.5887 9.99842 14.9976V4.99921C9.99842 4.46886 9.78774 3.96023 9.41273 3.58522C9.03771 3.21021 8.52909 2.99953 7.99874 2.99953H4.99921Z" stroke="var(--stroke-0, white)" stroke-width="1.99968" stroke-linecap="round" stroke-linejoin="round"/>
</g>
</svg>
